<svg xmlns="http://www.w3.org/2000/svg" width="496.063" height="595.281" viewBox="0 0 496.063 595.281">
  <g fill="#EF2648">
    <path d="M77.229 436.756L3.542 531.502l85.039-10.631 21.261 74.41 74.41-95.67.341-.438a326 326 0 0 0-48.175-40.053 329.083 329.083 0 0 0-59.189-22.364zM418.833 436.756a329.52 329.52 0 0 0-59.188 22.324 325.017 325.017 0 0 0-48.164 40.053l74.738 96.148 21.262-74.41 85.039 10.631-73.687-94.746z"/>
  </g>
  <path fill="#FFA511" d="M471.261 265.75c0-44.541 27.756-96.946 6.941-132.875-21.461-37.108-81.457-39-118.557-60.463C323.685 51.566 292.571 0 248.031 0c-44.54 0-75.654 51.577-111.615 72.38-37.11 21.474-97.094 23.386-118.556 60.464-20.813 35.961 6.941 88.367 6.941 132.906s-27.755 96.945-6.941 132.875c21.462 37.111 81.458 39.002 118.556 60.465 35.961 20.846 67.075 72.412 111.615 72.412 44.541 0 75.654-51.578 111.615-72.381 37.109-21.473 97.096-23.385 118.557-60.465 20.814-35.961-6.942-88.365-6.942-132.906z"/>
  <circle fill="#FFDC13" cx="248.031" cy="265.75" r="180.711"/>
  <path fill="#F08015" d="M478.202 132.875c-.457-.797-1.063-1.478-1.52-2.232a510.746 510.746 0 0 1-55.383 84.083c28.213 95.672-26.479 196.102-122.148 224.316-62.867 18.527-130.845 1.551-177.618-44.371a512.913 512.913 0 0 1-96.732 9.271c-1.147 0-2.264-.074-3.413-.086 23.886 32.082 79.725 34.855 115.027 55.277 35.961 20.791 67.075 72.369 111.615 72.369 44.541 0 75.654-51.576 111.615-72.381 37.109-21.473 97.096-23.385 118.557-60.463 20.814-35.961-6.941-88.369-6.941-132.908s27.756-96.945 6.941-132.875z"/>
  <path fill="#E5AF17" d="M121.501 394.703c71.082 69.957 185.408 69.043 255.355-2.039 46.07-46.814 63.088-114.954 44.443-177.937-40.407 51.75-159.907 155.25-299.798 179.976z"/>
  <g fill="#B20D24">
    <path d="M402.165 499.611a185.1 185.1 0 0 1 79.629 18.07l-62.961-80.947a329.513 329.513 0 0 0-59.188 22.322 325.03 325.03 0 0 0-48.164 40.055l13.49 17.357a184.84 184.84 0 0 1 77.194-16.857zM136.416 459.121a329.504 329.504 0 0 0-59.187-22.322l-3.285 4.252a137.862 137.862 0 0 1 57.157 111.709 139.276 139.276 0 0 1-1.063 16.584l54.214-69.732.341-.438a326.13 326.13 0 0 0-48.177-40.053z"/>
  </g>
  <path fill="#FFF" stroke="#000" stroke-miterlimit="10" d="M207.577 215.483l-53.56 70.905-12.753 48.969 17.853 34.177 39.279 8.672 32.646 4.081 44.89-35.708 36.216-66.823z"/>
  <path fill="#0080D3" d="M366.089 181.882c-3.997-20.911-15.825-39.014-33.291-50.925-13.129-8.975-28.392-13.71-44.182-13.71-26.292 0-50.757 13.119-65.468 35.059l-81.083 121.151c-11.816 17.652-16.119 38.882-12.109 59.805 3.998 20.91 15.825 39.002 33.292 50.913 13.117 8.986 28.391 13.71 44.181 13.71 26.281 0 50.746-13.117 65.444-35.07l81.083-121.114c11.828-17.68 16.13-38.897 12.133-59.819zm-82.653 117.67l-32.354 48.355c-9.8 14.646-26.128 23.396-43.653 23.396-10.503 0-20.702-3.161-29.446-9.14-11.641-7.945-19.529-20.011-22.202-33.958-2.673-13.949.211-28.098 8.077-39.854l32.365-48.356c4.806-7.175 14.477-9.069 21.592-4.214l61.447 41.961c3.424 2.321 5.779 5.944 6.553 10.028a15.84 15.84 0 0 1-2.379 11.782z"/>
  <path fill="#0080D3" d="M366.089 181.882c-3.997-20.911-15.825-39.014-33.291-50.925-13.129-8.975-28.392-13.71-44.182-13.71-26.292 0-50.757 13.119-65.469 35.059l-81.082 121.151c-11.816 17.652-16.119 38.882-12.109 59.805 3.998 20.91 15.825 39.002 33.292 50.913 13.117 8.986 28.391 13.71 44.181 13.71 26.281 0 50.746-13.117 65.444-35.07l81.083-121.114c11.828-17.68 16.13-38.896 12.133-59.819zm-82.653 117.67l-32.354 48.355c-9.8 14.646-26.128 23.396-43.653 23.396-10.504 0-20.702-3.161-29.446-9.14-11.641-7.945-19.529-20.011-22.202-33.958-2.673-13.949.211-28.098 8.077-39.854l32.365-48.356c4.807-7.175 14.478-9.069 21.593-4.214l61.447 41.961c3.424 2.321 5.779 5.944 6.553 10.028a15.845 15.845 0 0 1-2.38 11.782z"/>
</svg>