<?xml version="1.0" encoding="utf-8"?>
<!-- Generator: Adobe Illustrator 16.0.0, SVG Export Plug-In . SVG Version: 6.00 Build 0)  -->
<!DOCTYPE svg PUBLIC "-//W3C//DTD SVG 1.1//EN" "http://www.w3.org/Graphics/SVG/1.1/DTD/svg11.dtd">
<svg version="1.1" id="Capa_1" xmlns="http://www.w3.org/2000/svg" xmlns:xlink="http://www.w3.org/1999/xlink" x="0px" y="0px"
	 width="512px" height="512px" viewBox="0 0 512 512" enable-background="new 0 0 512 512" xml:space="preserve">
<linearGradient id="SVGID_1_" gradientUnits="userSpaceOnUse" x1="256.0593" y1="114.7212" x2="256.0593" y2="-266.1567" gradientTransform="matrix(1 0 0 -1 -0.0601 180.2842)">
	<stop  offset="0" style="stop-color:#00abff"/>
	<stop  offset="1" style="stop-color:#0078ff"/>
</linearGradient>
<path fill="url(#SVGID_1_)" d="M417.854,153.285c-5.479-28.378-21.693-52.948-45.637-69.114
	c-17.998-12.18-38.92-18.608-60.565-18.608c-36.043,0-69.58,17.805-89.747,47.581L110.753,277.549
	c-16.197,23.959-22.095,52.771-16.603,81.182c5.479,28.379,21.694,52.937,45.64,69.103c17.979,12.195,38.92,18.607,60.563,18.607
	c36.027,0,69.563-17.808,89.715-47.601L401.22,234.467C417.449,210.476,423.33,181.68,417.854,153.285z M260.214,378.592
	c-13.431,19.883-35.865,31.789-59.858,31.77c-14.396,0-28.378-4.307-40.35-12.403c-15.957-10.781-26.771-27.144-30.438-46.086
	c-3.664-18.933,0.289-38.136,11.072-54.072l56.171-82.985L316.334,295L260.214,378.592L260.214,378.592z"/>
</svg>
