<svg xmlns="http://www.w3.org/2000/svg" width="841.89" height="841.89" viewBox="-123.305 0 841.89 841.89">
	<path fill="#FFE8B6" d="M487.945 126.876c46.709-23.354 87.015 69.612 52.209 226.238-19.247 86.614-87.015 156.625-156.626 208.836-69.629 52.209-191.45-17.404-121.838-87.016 69.611-69.611 139.24-121.821 174.046-226.238 22.694-68.079 17.402-104.417 52.209-121.82"/>
	<path fill="#FFD983" d="M540.154 231.295c0 52.209-17.402 156.626-69.611 226.238-52.209 69.611-121.821 87.014-69.612 17.402 52.21-69.611 87.015-121.821 104.417-191.432 17.402-69.612 34.806-121.82 34.806-52.208"/>
	<path fill="#FFCC4D" d="M383.527 440.136c-5.151 10.305 20.31-66.704-52.227-104.435-34.51-17.942-174.028 17.405-69.61 17.405 52.227 0 69.61 34.805 34.806 69.61-5.065 5.082-8.494 10.494-10.825 15.873a583.449 583.449 0 0 1-23.98 18.951c-39.365 29.531-101.615 73.561-174.013 121.82-52.209 34.805-69.61 52.209-69.61 69.611 0 52.209 156.625 52.209 243.623 17.404 87.031-34.807 174.046-121.82 174.046-121.82l69.611-69.611c-52.209-69.629-121.821-34.808-121.821-34.808"/>
	<path fill="#FFE8B6" d="M383.527 440.136S414.713 357.838 331.3 318.3c-70.325-33.326-139.224-17.404-191.414 17.404-52.209 34.805-34.805 69.611-52.209 87.032-17.403 17.404 17.404 34.805 52.209 0 34.806-34.825 144.706-85.188 191.414-69.631 52.227 17.405 34.825 52.21 52.227 87.031"/>
	<path fill="#A6D388" d="M453.138 701.183h-69.611c-34.806 0-52.209 17.402-69.612 17.402-17.402 0-34.805-34.805 0-34.805 34.806 0 69.612 0 87.015-17.404 17.403-17.402 87.015 34.807 52.208 34.807"/>
	<path fill="#3E721D" d="M331.309 701.183c0 9.623-7.796 17.402-17.402 17.402-9.605 0-17.402-7.779-17.402-17.402s7.797-17.402 17.402-17.402c9.606-.002 17.402 7.777 17.402 17.402"/>
	<path fill="#FFCC4D" d="M561.182 579.361S487.95 701.183 453.144 701.183h-69.611c-34.806 0 0-17.402 17.402-34.807 17.402-17.402 87.015 0 87.015-104.416-.001-52.21 73.232 17.401 73.232 17.401"/>
	<path fill="#FFE8B6" d="M453.138 422.726c52.209 0 139.224 52.227 121.821 156.645s-87.015 121.822-121.821 121.822h-34.805c-34.806 0-17.403-17.404 0-34.807 17.402-17.402 69.611 0 69.611-104.416 0-52.209-69.611-121.822-104.417-121.822 0 0 34.806-17.422 69.611-17.422"/>
	<path fill="#FFD983" d="M296.504 457.541c52.227 0 87.033 17.402 52.227 52.209-27.532 27.516-104.436 87.016-174.047 104.418-69.612 17.402-139.224 17.402-87.015-17.403 52.209-34.807 169.921-139.224 208.835-139.224"/>
	<path fill="#C1694F" d="M35.46 631.572c17.402 0 17.402 0 17.402 11.607 0 11.59 0 23.197-17.402 23.197-17.403 0-17.403-23.197-17.403-23.197s0-11.607 17.403-11.607"/>
</svg>